<?xml version="1.0" ?><!DOCTYPE svg PUBLIC "-//W3C//DTD SVG 1.1//EN" "http://www.w3.org/Graphics/SVG/1.1/DTD/svg11.dtd"><svg viewBox="0 0 800 800" xmlns="http://www.w3.org/2000/svg" xmlns:xlink="http://www.w3.org/1999/xlink"><style>:root>svg{display:none}:root>svg:target{display:block}</style><svg style="enable-background:new 0 0 15.699 8.707" viewBox="0 0 15.699 8.707" xml:space="preserve" id="arrow-left" xmlns="http://www.w3.org/2000/svg"><path d="M15.699 3.854H1.914L5.061.707 4.354 0 0 4.354l4.354 4.353L5.061 8 1.914 4.854h13.785z"/></svg><svg style="enable-background:new 0 0 15.698 8.706" viewBox="0 0 15.698 8.706" xml:space="preserve" id="arrow-right" xmlns="http://www.w3.org/2000/svg"><path d="m11.354 0-.708.706 3.14 3.147H0v1h13.786L10.646 8l.708.706 4.344-4.353z"/></svg><svg viewBox="0 0 512 512" xml:space="preserve" id="email" xmlns="http://www.w3.org/2000/svg"><path d="M510.678 112.275a70.823 70.823 0 0 0-14.662-31.054c-1.518-1.915-3.104-3.63-4.823-5.345-12.755-12.818-30.657-20.814-50.214-20.814H71.021c-19.557 0-37.395 7.996-50.21 20.814-1.715 1.715-3.301 3.43-4.823 5.345-7.203 8.788-12.358 19.428-14.602 31.054A68.69 68.69 0 0 0 0 126.087V385.92c0 9.968 2.114 19.55 5.884 28.203 3.497 8.26 8.653 15.734 14.926 22.001a77.4 77.4 0 0 0 4.892 4.494 70.957 70.957 0 0 0 45.319 16.32h369.958c17.18 0 33.108-6.145 45.323-16.384 1.718-1.386 3.305-2.844 4.891-4.43 6.27-6.267 11.425-13.741 14.994-22.001v-.064c3.769-8.653 5.812-18.171 5.812-28.138V126.087a72.986 72.986 0 0 0-1.321-13.812zM46.509 101.571c6.345-6.338 14.866-10.175 24.512-10.175h369.958c9.646 0 18.242 3.837 24.512 10.175a34.402 34.402 0 0 1 3.112 3.637L274.696 274.203c-5.348 4.687-11.954 7.002-18.696 7.002-6.674 0-13.276-2.315-18.695-7.002L43.472 105.136c.858-1.25 1.915-2.436 3.037-3.565zM36.334 385.92V142.735L176.658 265.15 36.405 387.435c-.071-.464-.071-.986-.071-1.515zm404.645 34.677H71.021c-6.281 0-12.158-1.651-17.174-4.552l147.978-128.959 13.815 12.018c11.561 10.046 26.028 15.134 40.36 15.134a61.64 61.64 0 0 0 40.432-15.134l13.808-12.018 147.92 128.959c-5.023 2.901-10.9 4.552-17.181 4.552zm34.687-34.677c0 .529 0 1.051-.068 1.515L335.346 265.221 475.666 142.8v243.12z" style="fill:#000"/></svg><svg viewBox="0 0 1920 1920" id="email-svgrepo-com" xmlns="http://www.w3.org/2000/svg"><path d="M0 1694.235h1920V226H0v1468.235ZM112.941 376.664V338.94H1807.06v37.723L960 1111.233l-847.059-734.57ZM1807.06 526.198v950.513l-351.134-438.89-88.32 70.475 378.353 472.998H174.042l378.353-472.998-88.32-70.475-351.134 438.89V526.198L960 1260.768l847.059-734.57Z" fill-rule="evenodd"/></svg><svg viewBox="0 0 310 310" xml:space="preserve" id="facebook" xmlns="http://www.w3.org/2000/svg"><path d="M81.703 165.106h33.981V305a5 5 0 0 0 5 5H178.3a5 5 0 0 0 5-5V165.765h39.064a5 5 0 0 0 4.967-4.429l5.933-51.502a5 5 0 0 0-4.966-5.572h-44.996V71.978c0-9.732 5.24-14.667 15.576-14.667h29.42a5 5 0 0 0 5-5V5.037a5 5 0 0 0-5-5h-40.545A39.746 39.746 0 0 0 185.896 0c-7.035 0-31.488 1.381-50.804 19.151-21.402 19.692-18.427 43.27-17.716 47.358v37.752H81.703a5 5 0 0 0-5 5v50.844a5 5 0 0 0 5 5.001z"/></svg><svg viewBox="0 0 310 310" xml:space="preserve" id="linkedin" xmlns="http://www.w3.org/2000/svg"><path d="M72.16 99.73H9.927a5 5 0 0 0-5 5v199.928a5 5 0 0 0 5 5H72.16a5 5 0 0 0 5-5V104.73a5 5 0 0 0-5-5zM41.066.341C18.422.341 0 18.743 0 41.362 0 63.991 18.422 82.4 41.066 82.4c22.626 0 41.033-18.41 41.033-41.038C82.1 18.743 63.692.341 41.066.341zM230.454 94.761c-24.995 0-43.472 10.745-54.679 22.954V104.73a5 5 0 0 0-5-5h-59.599a5 5 0 0 0-5 5v199.928a5 5 0 0 0 5 5h62.097a5 5 0 0 0 5-5V205.74c0-33.333 9.054-46.319 32.29-46.319 25.306 0 27.317 20.818 27.317 48.034v97.204a5 5 0 0 0 5 5H305a5 5 0 0 0 5-5V194.995c0-49.565-9.451-100.234-79.546-100.234z"/></svg><svg viewBox="0 0 395.71 395.71" xml:space="preserve" id="location" xmlns="http://www.w3.org/2000/svg"><path d="M197.849 0C122.131 0 60.531 61.609 60.531 137.329c0 72.887 124.591 243.177 129.896 250.388l4.951 6.738a3.064 3.064 0 0 0 2.471 1.255 3.08 3.08 0 0 0 2.486-1.255l4.948-6.738c5.308-7.211 129.896-177.501 129.896-250.388C335.179 61.609 273.569 0 197.849 0zm0 88.138c27.13 0 49.191 22.062 49.191 49.191 0 27.115-22.062 49.191-49.191 49.191-27.114 0-49.191-22.076-49.191-49.191 0-27.129 22.076-49.191 49.191-49.191z"/></svg><svg viewBox="0 0 53.942 53.942" xml:space="preserve" id="phone" xmlns="http://www.w3.org/2000/svg"><path d="M53.364 40.908c-2.008-3.796-8.981-7.912-9.288-8.092-.896-.51-1.831-.78-2.706-.78-1.301 0-2.366.596-3.011 1.68-1.02 1.22-2.285 2.646-2.592 2.867-2.376 1.612-4.236 1.429-6.294-.629L17.987 24.467c-2.045-2.045-2.233-3.928-.632-6.291.224-.309 1.65-1.575 2.87-2.596.778-.463 1.312-1.151 1.546-1.995.311-1.123.082-2.444-.652-3.731-.173-.296-4.291-7.27-8.085-9.277a4.947 4.947 0 0 0-2.306-.573 4.908 4.908 0 0 0-3.49 1.445L4.7 3.986C.686 7.999-.767 12.548.379 17.506c.956 4.132 3.742 8.529 8.282 13.068l14.705 14.705c5.746 5.746 11.224 8.66 16.282 8.66h.001c3.72 0 7.188-1.581 10.305-4.698l2.537-2.537a4.908 4.908 0 0 0 .873-5.796z"/></svg><svg viewBox="0 0 97.672 97.672" xml:space="preserve" id="pinterest" xmlns="http://www.w3.org/2000/svg"><path d="M51.125 0C24.469 0 11.029 19.11 11.029 35.047c0 9.649 3.653 18.232 11.487 21.432 1.286.525 2.438.019 2.812-1.403.258-.985.871-3.468 1.144-4.503.376-1.407.229-1.9-.807-3.126-2.259-2.665-3.703-6.115-3.703-11.002 0-14.178 10.608-26.87 27.624-26.87 15.064 0 23.342 9.206 23.342 21.5 0 16.176-7.159 29.828-17.786 29.828-5.87 0-10.262-4.854-8.854-10.807 1.686-7.107 4.951-14.778 4.951-19.907 0-4.592-2.463-8.423-7.565-8.423-6 0-10.819 6.207-10.819 14.521 0 5.296 1.789 8.878 1.789 8.878s-6.141 26.015-7.215 30.571c-2.145 9.072-.322 20.195-.168 21.318.089.666.944.824 1.332.322.555-.723 7.7-9.544 10.129-18.359.687-2.496 3.944-15.42 3.944-15.42 1.95 3.717 7.647 6.992 13.706 6.992 18.034 0 30.271-16.441 30.271-38.45C86.644 15.498 72.547 0 51.125 0z"/></svg><svg viewBox="0 0 310 310" xml:space="preserve" id="twitter" xmlns="http://www.w3.org/2000/svg"><path d="M302.973 57.388a117.512 117.512 0 0 1-14.993 5.463 66.276 66.276 0 0 0 13.494-23.73 5 5 0 0 0-7.313-5.824 117.994 117.994 0 0 1-34.878 13.783c-12.381-12.098-29.197-18.983-46.581-18.983-36.695 0-66.549 29.853-66.549 66.547 0 2.89.183 5.764.545 8.598C101.163 99.244 58.83 76.863 29.76 41.204a5.001 5.001 0 0 0-8.196.642c-5.896 10.117-9.013 21.688-9.013 33.461 0 16.035 5.725 31.249 15.838 43.137a56.37 56.37 0 0 1-8.907-3.977 5 5 0 0 0-7.427 4.257c-.007.295-.007.59-.007.889 0 23.935 12.882 45.484 32.577 57.229a57.372 57.372 0 0 1-5.063-.735 4.998 4.998 0 0 0-5.699 6.437c7.29 22.76 26.059 39.501 48.749 44.605-18.819 11.787-40.34 17.961-62.932 17.961a120.4 120.4 0 0 1-14.095-.826 5 5 0 0 0-3.286 9.174c29.023 18.609 62.582 28.445 97.047 28.445 67.754 0 110.139-31.95 133.764-58.753 29.46-33.421 46.356-77.658 46.356-121.367 0-1.826-.028-3.67-.084-5.508 11.623-8.757 21.63-19.355 29.773-31.536a5 5 0 0 0-6.182-7.351z"/></svg></svg>